<svg xmlns="http://www.w3.org/2000/svg" viewBox="0 0 200 200" width="200" height="200">
  <defs>
    <linearGradient id="grad1" x1="0%" y1="0%" x2="100%" y2="100%">
      <stop offset="0%" style="stop-color:#4A90E2;stop-opacity:1" />
      <stop offset="100%" style="stop-color:#357ABD;stop-opacity:1" />
    </linearGradient>
  </defs>

  <!-- Background Circle -->
  <circle cx="100" cy="100" r="90" fill="url(#grad1)"/>

  <!-- Storage/Database Icon -->
  <!-- Top Cylinder -->
  <ellipse cx="100" cy="70" rx="45" ry="12" fill="#E8F4F8" opacity="0.9"/>
  <rect x="55" y="70" width="90" height="35" fill="#E8F4F8" opacity="0.9"/>
  <ellipse cx="100" cy="105" rx="45" ry="12" fill="#C1E1EC" opacity="0.9"/>

  <!-- Middle Cylinder -->
  <rect x="55" y="105" width="90" height="25" fill="#E8F4F8" opacity="0.8"/>
  <ellipse cx="100" cy="130" rx="45" ry="12" fill="#C1E1EC" opacity="0.8"/>

  <!-- Bottom Cylinder -->
  <rect x="55" y="130" width="90" height="25" fill="#E8F4F8" opacity="0.7"/>
  <ellipse cx="100" cy="155" rx="45" ry="12" fill="#C1E1EC" opacity="0.7"/>

  <!-- Admin/Console Symbol (Gear) -->
  <g transform="translate(140, 60) scale(0.8)">
    <circle cx="0" cy="0" r="18" fill="#FFB74D" opacity="0.95"/>
    <circle cx="0" cy="0" r="8" fill="#FFF" opacity="0.95"/>
    <!-- Gear teeth -->
    <rect x="-3" y="-22" width="6" height="8" fill="#FFB74D" opacity="0.95"/>
    <rect x="-3" y="14" width="6" height="8" fill="#FFB74D" opacity="0.95"/>
    <rect x="14" y="-3" width="8" height="6" fill="#FFB74D" opacity="0.95"/>
    <rect x="-22" y="-3" width="8" height="6" fill="#FFB74D" opacity="0.95"/>
  </g>
</svg>
