<svg xmlns="http://www.w3.org/2000/svg" viewBox="0 0 512 512" width="512" height="512">
  <defs>
    <linearGradient id="grad512" x1="0%" y1="0%" x2="100%" y2="100%">
      <stop offset="0%" style="stop-color:#4A90E2;stop-opacity:1" />
      <stop offset="100%" style="stop-color:#357ABD;stop-opacity:1" />
    </linearGradient>
  </defs>

  <!-- Background -->
  <rect width="512" height="512" rx="64" fill="url(#grad512)"/>

  <!-- Storage/Database Icon (scaled up) -->
  <!-- Top Cylinder -->
  <ellipse cx="256" cy="180" rx="120" ry="32" fill="#E8F4F8" opacity="0.9"/>
  <rect x="136" y="180" width="240" height="93" fill="#E8F4F8" opacity="0.9"/>
  <ellipse cx="256" cy="273" rx="120" ry="32" fill="#C1E1EC" opacity="0.9"/>

  <!-- Middle Cylinder -->
  <rect x="136" y="273" width="240" height="67" fill="#E8F4F8" opacity="0.8"/>
  <ellipse cx="256" cy="340" rx="120" ry="32" fill="#C1E1EC" opacity="0.8"/>

  <!-- Bottom Cylinder -->
  <rect x="136" y="340" width="240" height="67" fill="#E8F4F8" opacity="0.7"/>
  <ellipse cx="256" cy="407" rx="120" ry="32" fill="#C1E1EC" opacity="0.7"/>

  <!-- Admin/Console Symbol (Gear) - larger -->
  <g transform="translate(374, 160) scale(2.1)">
    <circle cx="0" cy="0" r="18" fill="#FFB74D" opacity="0.95"/>
    <circle cx="0" cy="0" r="8" fill="#FFF" opacity="0.95"/>
    <!-- Gear teeth -->
    <rect x="-3" y="-22" width="6" height="8" fill="#FFB74D" opacity="0.95"/>
    <rect x="-3" y="14" width="6" height="8" fill="#FFB74D" opacity="0.95"/>
    <rect x="14" y="-3" width="8" height="6" fill="#FFB74D" opacity="0.95"/>
    <rect x="-22" y="-3" width="8" height="6" fill="#FFB74D" opacity="0.95"/>
    <!-- Diagonal teeth -->
    <rect x="-16" y="-16" width="6" height="8" fill="#FFB74D" opacity="0.95" transform="rotate(-45)"/>
    <rect x="10" y="-16" width="6" height="8" fill="#FFB74D" opacity="0.95" transform="rotate(45)"/>
    <rect x="-16" y="10" width="6" height="8" fill="#FFB74D" opacity="0.95" transform="rotate(45)"/>
    <rect x="10" y="10" width="6" height="8" fill="#FFB74D" opacity="0.95" transform="rotate(-45)"/>
  </g>
</svg>
