<svg xmlns="http://www.w3.org/2000/svg" viewBox="0 0 192 192" width="192" height="192">
  <defs>
    <linearGradient id="grad192" x1="0%" y1="0%" x2="100%" y2="100%">
      <stop offset="0%" style="stop-color:#4A90E2;stop-opacity:1" />
      <stop offset="100%" style="stop-color:#357ABD;stop-opacity:1" />
    </linearGradient>
  </defs>

  <!-- Background -->
  <rect width="192" height="192" rx="24" fill="url(#grad192)"/>

  <!-- Storage/Database Icon -->
  <!-- Top Cylinder -->
  <ellipse cx="96" cy="67" rx="43" ry="11" fill="#E8F4F8" opacity="0.9"/>
  <rect x="53" y="67" width="86" height="33" fill="#E8F4F8" opacity="0.9"/>
  <ellipse cx="96" cy="100" rx="43" ry="11" fill="#C1E1EC" opacity="0.9"/>

  <!-- Middle Cylinder -->
  <rect x="53" y="100" width="86" height="24" fill="#E8F4F8" opacity="0.8"/>
  <ellipse cx="96" cy="124" rx="43" ry="11" fill="#C1E1EC" opacity="0.8"/>

  <!-- Bottom Cylinder -->
  <rect x="53" y="124" width="86" height="24" fill="#E8F4F8" opacity="0.7"/>
  <ellipse cx="96" cy="148" rx="43" ry="11" fill="#C1E1EC" opacity="0.7"/>

  <!-- Admin/Console Symbol (Gear) -->
  <g transform="translate(134, 57) scale(0.75)">
    <circle cx="0" cy="0" r="17" fill="#FFB74D" opacity="0.95"/>
    <circle cx="0" cy="0" r="7" fill="#FFF" opacity="0.95"/>
    <!-- Gear teeth -->
    <rect x="-3" y="-21" width="6" height="7" fill="#FFB74D" opacity="0.95"/>
    <rect x="-3" y="14" width="6" height="7" fill="#FFB74D" opacity="0.95"/>
    <rect x="14" y="-3" width="7" height="6" fill="#FFB74D" opacity="0.95"/>
    <rect x="-21" y="-3" width="7" height="6" fill="#FFB74D" opacity="0.95"/>
  </g>
</svg>
